<?xml version="1.0" encoding="UTF-8"?>
<svg id="Layer_1" xmlns="http://www.w3.org/2000/svg" version="1.1" viewBox="0 0 280.8 205.4">
  <!-- Generator: Adobe Illustrator 30.6.0, SVG Export Plug-In . SVG Version: 2.1.4 Build 109)  -->
  <path d="M120.7,168.2v5.8h11.7v30h6.5v-30h11.8v-5.8h-30ZM189.5,168.2v35.8h22.2v-5.8h-15.7v-30h-6.5ZM210.4,168.2v5.8h11.7v30h6.5v-30h11.8v-5.8h-30ZM46.2,186c0-6.5,5.1-12.5,11.8-12.5s11.8,5.9,11.8,12.5-5.1,12.6-11.8,12.6-11.8-6-11.8-12.6M39.7,186c0,10.2,8.3,18.4,18.4,18.4s18.3-8.2,18.3-18.4-8.2-18.3-18.3-18.3-18.4,8.3-18.4,18.3M250.7,186c0-6.5,5.1-12.5,11.8-12.5s11.8,5.9,11.8,12.5-5.1,12.6-11.8,12.6-11.8-6-11.8-12.6M244.1,186c0,10.2,8.3,18.4,18.4,18.4s18.3-8.2,18.3-18.4-8.2-18.3-18.3-18.3-18.4,8.3-18.4,18.3M16.1,182.9L0,167.1v36.8h6.5v-21.9l9.6,9.7,9.5-9.7v21.9h6.5v-36.8l-15.9,15.7ZM84.1,203.9h6.5v-21.6l24,23.1v-37.2h-6.5v22l-24-23.1v36.8ZM149.4,203.9h6.9l3.6-8.1,2.5-5.8,4.3-9.8,4.4,9.8,2.5,5.8,3.5,8.1h6.9l-17.2-36.8-17.3,36.8ZM87.5,144.2h2.9c1.7,0,3.1,1.1,3.1,2.6s-1.3,2.6-3,2.6h-3v-5.2ZM87.5,136.3h1.9c1.8,0,2.6,1,2.6,2.4s-1.4,2.4-3.2,2.4h-1.3v-4.8ZM84,133.1v19.5h6.5c3.8,0,6.6-2,6.6-5.8s-2-3.9-3.7-4.6c1-.5,2.2-1.9,2.2-3.6,0-3.6-2.6-5.5-6.1-5.5h-5.4ZM125,136.3h2.8c1.7,0,3.3.9,3.3,2.7s-1.6,2.7-3.2,2.7h-2.8v-5.3ZM121.5,133.1v19.5h3.5v-7.8h2l4.9,7.8h3.9l-5.4-8.3c2.3-.8,4-2.7,4-5.3,0-3.9-3.2-5.8-6.8-5.8h-6.3ZM184.7,133.1v19.5h12.1v-3.2h-8.6v-5h7.3v-3.2h-7.3v-5h8.3v-3.2h-11.8ZM142.1,142.8c0-3.6,2.8-6.8,6.5-6.8s6.4,3.2,6.4,6.8-2.8,6.9-6.4,6.9-6.5-3.3-6.5-6.9M138.5,142.8c0,5.5,4.5,10,10,10s10-4.5,10-10-4.5-10-10-10-10,4.5-10,10M99.3,152.6h3.7l2-4.4,1.4-3.2,2.4-5.4,2.4,5.4,1.3,3.2,1.9,4.4h3.7l-9.4-20.1-9.4,20.1ZM162.9,152.6h3.5v-11.8l13.1,12.6v-20.3h-3.5v12l-13.1-12.6v20.1ZM105.7,62.3c0,2.6-2.1,4.8-4.8,4.8s-4.8-2.1-4.8-4.8h-2.7c0,4.1,3.3,7.4,7.4,7.4s7.4-3.3,7.4-7.4h-2.7ZM183.4,62.3c0,2.6-2.1,4.8-4.8,4.8s-4.8-2.1-4.8-4.8h-2.6c0,4.1,3.3,7.4,7.4,7.4s7.4-3.3,7.4-7.4h-2.6ZM93.5,58.8h14.8v-2.7h-14.8v2.7ZM171.3,58.7h14.8v-2.7h-14.8v2.7ZM137.5,108.7c0-1.6,1.3-2.9,2.9-2.9s2.9,1.3,2.9,2.9-1.3,2.9-2.9,2.9-2.9-1.3-2.9-2.9M133.3,100.9c0-1.6,1.3-2.9,2.9-2.9s2.9,1.3,2.9,2.9-1.3,2.9-2.9,2.9-2.9-1.3-2.9-2.9M141.7,100.9c0-1.6,1.3-2.9,2.9-2.9s2.9,1.3,2.9,2.9-1.3,2.9-2.9,2.9-2.9-1.3-2.9-2.9M129.4,94.1c-.2-.3-.2-.7-.2-1.1,0-1.6,1.3-2.9,2.9-2.9s2.9,1.3,2.9,2.9,0,.6-.2.9c-.4,1.2-1.5,2-2.7,2s-2.2-.7-2.6-1.8M137.6,93.8c0-.2-.1-.5-.1-.8,0-1.6,1.3-2.9,2.9-2.9s2.9,1.3,2.9,2.9,0,.5-.1.8c-.4,1.2-1.5,2-2.8,2s-2.4-.8-2.8-2.1M146.1,93.9c0-.2-.1-.5-.1-.8,0-1.6,1.3-2.9,2.9-2.9s2.9,1.3,2.9,2.9,0,.8-.2,1.1c-.5,1-1.5,1.7-2.6,1.7s-2.3-.8-2.7-2M134.8,74.4c0-1.8.5-3.8,1.4-5.9.3-.6.6-1.2.9-1.8,0-.1.1-.3.2-.4.3-.5.6-1.1.9-1.5,0,0,0-.1.1-.2.3-.4.6-.9.9-1.2,0,0,.1-.2.2-.3.3-.4.6-.8.9-1.1,0,0,0,0,0,0,.1.1.3.3.4.4.2.2.4.4.6.7.3.4.6.7.8,1.1.2.2.3.5.5.7.3.4.5.8.8,1.2.1.2.3.4.4.6.3.6.6,1.2.9,1.8,0,0,0,0,0,0,.8,2,1.3,4,1.3,5.9v2.5s2.1-1.4,2.1-1.4c2.6-1.8,6.6-2.3,8.8-2.4-.3,2.7-1.5,8.1-3.7,10.7l-1.4,1.6,2,.6c2.2.6,4.2,2.3,5.6,3.6-1.3,1.2-3.1,2.4-5,3.2,0-.1,0-.3,0-.4,0-.2,0-.3,0-.5,0-.2-.1-.4-.2-.5,0-.2,0-.3-.2-.5,0-.2-.2-.3-.3-.5,0-.1-.2-.3-.2-.4-.1-.2-.2-.3-.4-.4-.1-.1-.2-.2-.3-.4-.1-.1-.3-.3-.5-.4-.1,0-.2-.2-.4-.3-.2-.1-.4-.2-.5-.3-.1,0-.2-.1-.4-.2-.2,0-.4-.1-.7-.2-.1,0-.2,0-.3-.1-.3,0-.7-.1-1.1-.1s-.8,0-1.2.1c-.1,0-.2,0-.4.1-.2,0-.5.1-.7.2-.1,0-.3.1-.4.2-.2.1-.4.2-.6.4-.1,0-.2.2-.4.3-.2.1-.3.3-.5.4,0,0-.1,0-.1.1,0,0-.1,0-.2-.1-.1-.2-.3-.3-.5-.4-.1-.1-.2-.2-.4-.3-.2-.1-.4-.2-.6-.3-.1,0-.3-.2-.4-.2-.2,0-.5-.2-.7-.2,0,0-.1,0-.2,0v-3.5l4.9-1.1-.6-2.6-4.3,1v-4.9h-2.6v4.9l-4.3-1-.6,2.6,4.9,1.1v3.5c0,0-.1,0-.2,0-.2,0-.5.1-.7.2-.1,0-.3.1-.4.2-.2.1-.4.2-.6.4-.1,0-.2.2-.4.3-.2.1-.3.3-.5.4,0,0,0,0-.1.1,0,0-.1,0-.2-.1-.1-.2-.3-.3-.5-.4-.1-.1-.2-.2-.4-.3-.2-.1-.4-.2-.6-.4-.1,0-.3-.2-.4-.2-.2,0-.5-.2-.7-.2-.1,0-.2,0-.4-.1-.4,0-.8-.1-1.2-.1s-.7,0-1.1.1c-.1,0-.2,0-.3,0-.2,0-.5.1-.7.2-.1,0-.2.1-.4.2-.2,0-.4.2-.6.3-.1,0-.2.2-.3.3-.2.1-.3.2-.5.4-.1.1-.2.2-.3.3-.1.2-.3.3-.4.5,0,.1-.2.3-.2.4-.1.2-.2.3-.3.5,0,.1-.1.3-.2.4,0,.2-.1.4-.2.6,0,.2,0,.3,0,.5,0,.1,0,.3,0,.4-2.1-1-3.9-2.3-5-3.2,2.1-2,4-3.1,5.6-3.6l2-.6-1.4-1.6c-2.9-3.2-3.6-8.2-3.8-10.6,2.5.3,7.1,1.2,8.8,2.4l2,1.4v-2.4ZM116.5,48.4c.3.1.5.3.8.4,4.8,2.7,12,6.8,21.8,5.2v5.5s-.1.1-.2.2c0,0,0,0-.1.2-.2.2-.4.4-.6.7,0,0,0,0,0,0-.2.2-.4.5-.6.8,0,0-.1.2-.2.3-.2.3-.4.5-.6.8,0,0-.1.2-.2.3-.3.4-.6.8-.8,1.3,0,0,0,.2-.1.3-.2.4-.4.8-.7,1.2,0,.1-.2.3-.2.4,0,.1-.1.3-.2.4-8.7-3.2-16.1-12.1-17.9-18M163.5,48.9c.3-.2.5-.3.8-.5-1.8,5.9-9.1,14.7-17.8,17.9,0,0,0,0,0,0-.3-.6-.7-1.2-1-1.8,0-.1-.1-.2-.2-.3-.4-.6-.7-1.1-1.1-1.6,0,0,0-.1-.1-.2-.4-.5-.7-.9-1-1.3,0,0-.1-.1-.2-.2-.4-.4-.7-.8-1-1.1,0,0,0,0,0-.1v-5.5c1.6.3,3.1.4,4.5.4,7.6,0,13.3-3.2,17.3-5.5M84.1,44.9c0-1.3.5-2.5,1.3-3.4.5,2,1.7,3.3,2.4,4,0,1.5,0,2.9-.1,4.3-2.1-.6-3.6-2.6-3.6-4.9M193,45.5c.7-.7,1.9-2.1,2.4-4,.8.9,1.4,2.2,1.4,3.4,0,2.3-1.5,4.2-3.6,4.9,0-1.4-.2-2.9-.2-4.3M91.8,28c5-4.8,13.8-4.4,19.1-4.2,1,0,1.8,0,2.5,0,8.9,0,22.1,3.9,25.6,4.9v22h0s0,.6,0,.6c-9.1,1.7-15.7-2-20.5-4.8-1.2-.7-2.3-1.3-3.3-1.7h0c-.7-.4-1.5-.8-2.3-1.2-3.3-1.7-7-3.6-12.2-3.7-3.9,0-7.6,1.1-11.4,3.3-.7-.8-1.7-2.3-1.6-4.3.2-2.2,1.7-3.6,2.1-3.9,3.7-2.3,7.3-3.4,10.9-3.4h0c4.5,0,7.8,1.7,10.9,3.4.8.4,1.6.8,2.3,1.2,2.2,1.2,4.6,2.2,7,3.2,2.7,1.1,5.5,2,8.3,2.7l.6-2.6c-2.7-.7-5.4-1.5-8-2.6-2.3-.9-4.5-1.9-6.7-3.1-.7-.4-1.5-.8-2.3-1.2-3.3-1.7-7-3.6-12.2-3.7-4,0-7.9,1.2-12,3.6.7-1.9,1.7-3.5,3-4.7M141.7,51.3v-22.5c3.5-1.1,16.8-4.9,25.7-4.9s1.6,0,2.5,0c5.3-.2,14-.6,19.1,4.2,1.3,1.3,2.3,2.8,3,4.7-4-2.4-8-3.6-12-3.6h0c-5.2,0-8.9,2-12.1,3.7-.8.4-1.5.8-2.3,1.2-2.2,1.1-4.4,2.2-6.7,3-2.6,1-5.3,1.9-8,2.6l.7,2.6c2.8-.7,5.6-1.6,8.3-2.7,2.4-.9,4.7-2,6.9-3.1.8-.4,1.6-.8,2.4-1.2,3.1-1.7,6.4-3.4,10.9-3.4h0c3.6,0,7.2,1.1,10.8,3.3.5.4,2,1.7,2.2,3.9.2,2-.9,3.5-1.6,4.3-3.8-2.2-7.6-3.3-11.4-3.3h0c-5.2,0-8.9,2-12.1,3.7-.8.4-1.5.8-2.3,1.2h0c-1,.5-2.1,1.1-3.3,1.8-4,2.3-9.1,5.2-16,5.2-1.4,0-3-.1-4.5-.4M79.1,21.8c0-1.5,1.3-2.8,2.8-2.8s2.8,1.3,2.8,2.8,0,7,1.2,11.1c-.4,1.3-.6,2.7-.7,4.3-3.3-1.6-6.1-9.3-6.1-15.3M194.8,32.9c1.2-4.1,1.2-10.7,1.2-11.1,0-1.5,1.3-2.8,2.8-2.8s2.8,1.3,2.8,2.8c0,6.1-2.8,13.7-6.1,15.3-.1-1.5-.4-2.9-.7-4.3M153.5,15.2c5-.9,8.7-3.2,10.9-5,.4-.3.9-.3,1.3,0,2.2,1.8,5.9,4.1,10.9,5,1.4.2,2.7.4,4,.4,2.7,0,5-.5,6.8-1l-3,7.8c-5.1-1.7-10.8-1.4-14.6-1.2-.9,0-1.8,0-2.4,0-9.9,0-24.3,4.4-27,5.2-2.7-.8-17.1-5.2-27-5.2s-1.5,0-2.4,0c-3.9-.2-9.6-.4-14.6,1.2l-3-7.8c2.7.8,6.5,1.4,10.9.7,5-.9,8.7-3.2,10.9-5,.4-.3.9-.3,1.3,0,2.2,1.8,5.9,4.1,10.9,5,1.4.2,2.7.4,4,.4,3.9,0,7.1-1,9.1-1.8,2,.8,5.2,1.8,9.1,1.8s2.6,0,4-.4M89.2,9c0-1.1.9-1.9,1.9-1.9s1.9.9,1.9,1.9-.9,1.9-1.9,1.9-1.9-.9-1.9-1.9M138.5,9c0-1.1.9-1.9,1.9-1.9s1.9.9,1.9,1.9-.9,1.9-1.9,1.9-1.9-.9-1.9-1.9M187.8,9c0-1.1.9-1.9,1.9-1.9s1.9.9,1.9,1.9-.9,1.9-1.9,1.9-1.9-.9-1.9-1.9M113.8,4.6c0-1.1.9-1.9,1.9-1.9s1.9.9,1.9,1.9-.9,1.9-1.9,1.9-1.9-.9-1.9-1.9M163.1,4.6c0-1.1.9-1.9,1.9-1.9s1.9.9,1.9,1.9-.9,1.9-1.9,1.9-1.9-.9-1.9-1.9M160.5,4.6c0,1.6.8,2.9,2,3.8-2,1.6-5.1,3.5-9.4,4.2-3.7.6-6.9.2-9.3-.5.7-.8,1.2-1.9,1.2-3.1,0-2.5-2.1-4.6-4.6-4.6s-4.6,2.1-4.6,4.6.5,2.2,1.2,3.1c-2.4.7-5.6,1.1-9.3.5-4.3-.7-7.4-2.7-9.4-4.2,1.2-.8,2-2.2,2-3.8,0-2.5-2.1-4.6-4.6-4.6s-4.6,2.1-4.6,4.6.8,2.9,2,3.8c-2,1.6-5.1,3.5-9.4,4.2-3.7.6-6.9.2-9.3-.5.7-.8,1.2-1.9,1.2-3.1,0-2.5-2.1-4.6-4.6-4.6s-4.6,2.1-4.6,4.6,1.6,4,3.6,4.5l3.7,9.8c-1.4.7-2.8,1.6-3.9,2.7-.8.8-1.5,1.6-2.1,2.6-.3-2.2-.5-4.7-.5-6.8,0-3-2.4-5.5-5.5-5.5s-5.5,2.4-5.5,5.5c0,6.3,2.8,14.9,7.3,17.5-1.4,1.4-2.3,3.4-2.3,5.5,0,3.7,2.6,6.8,6,7.6-.4,4.4-1.2,8.7-2.4,12.7-1.5,4.9-3.2,9-5.2,12.1l-.8,1.2,8.3,4.7,2,19.8h1.2c7,0,13.6-1.8,19.6-5.2v15.2h2.6v-16.8c.7-.4,1.3-.9,2-1.4l-1.6-2.1c-6.2,4.8-13.6,7.4-21.4,7.6l-1.9-18.8-7.1-4c1.8-3.1,3.4-7,4.8-11.6,1.8-6.3,2.8-13,2.9-20.2,3.5-2,6.9-3,10.3-3.1h0c4.5,0,7.8,1.7,10.9,3.4.6.3,1.1.6,1.7.9.7,7.1,9.8,18.2,19.9,22-.4,1.2-.8,2.4-1,3.5-3.4-1.3-8.6-2-9.8-2h-1.3v1.3c0,.8.1,7.4,3.4,12.4-1.9.9-3.8,2.4-6,4.6l-.9.9.9.9c.4.4,4,3.9,8.6,5.3.8,1.5,2.3,2.5,4,2.7-.4.7-.6,1.5-.6,2.4,0,2.8,2.1,5.1,4.8,5.4-.4.7-.6,1.5-.6,2.4,0,3,2.5,5.5,5.5,5.5s5.5-2.5,5.5-5.5-.2-1.7-.6-2.4c2.7-.4,4.8-2.7,4.8-5.4s-.2-1.7-.6-2.4c1.7-.2,3.1-1.2,4-2.7,3.5-1.1,6.7-3.4,8.6-5.3l.9-1-1-.9c-1.1-1.1-3.3-3.2-5.9-4.5,2.5-4.1,3.4-10.8,3.4-12.3v-1.3h-1.3c-1.5,0-6,.2-9.8,1.9-.2-1.2-.5-2.3-.9-3.5,10-3.8,19.1-14.9,19.8-21.9.6-.3,1.1-.6,1.7-.9,3.1-1.7,6.4-3.4,10.9-3.4h0c3.4,0,6.8,1,10.3,3.1,0,4.5.5,8.9,1.3,13.3,1.1,5.8,2.9,16,3.2,21.9h-6.4c-2.6,0-4.7.7-6.6,1.3-3.4,1.1-5.6,1.8-9-1.4l-1.8,1.9c2.5,2.3,4.7,3,6.7,3s3.4-.5,5-1c1.4-.4,2.7-.9,4.3-1.1l-1.7,16.5c-7.7-.2-15-2.8-21.2-7.5l-1.6,2.1c1.7,1.3,3.5,2.4,5.4,3.4v14.6h2.7v-13.4c4.6,2,9.6,3.1,14.8,3.3.6,3.5,3.4,6.3,6.9,6.3v-2.7c-2.4,0-4.4-2.2-4.4-4.9l1.8-18h7.8v-1.3c0-5.5-1.8-16-3.3-23.8-.4-2-.7-4-.9-6,3.5-.8,6-3.9,6-7.6s-.9-4.1-2.3-5.5c4.5-2.6,7.3-11.3,7.3-17.5s-2.4-5.5-5.5-5.5-5.5,2.4-5.5,5.5-.2,4.6-.5,6.8c-.6-1-1.3-1.8-2.1-2.6-1.2-1.1-2.5-2-3.9-2.7l3.7-9.8c2.1-.4,3.6-2.3,3.6-4.5s-2.1-4.6-4.6-4.6-4.6,2.1-4.6,4.6.5,2.2,1.2,3.1c-2.4.7-5.6,1.1-9.3.5-4.3-.7-7.4-2.7-9.4-4.2,1.2-.8,2-2.2,2-3.8,0-2.5-2.1-4.6-4.6-4.6s-4.6,2.1-4.6,4.6"/>
</svg>