<svg xmlns="http://www.w3.org/2000/svg" width="113.69" height="90.361" viewBox="0 0 113.69 90.361">
  <g id="Groupe_1108" data-name="Groupe 1108" transform="translate(-250 -71.252)">
    <g id="Groupe_990" data-name="Groupe 990" transform="translate(290 140.139)">
      <path id="Tracé_19124" data-name="Tracé 19124" d="M894.91,3756.534h3.282c3.064,0,4.054,1.979,3.462,5.019l-.27,1.363c-.6,3.042-1.8,4.645-5.428,4.645h-1.333l-1.9,9.005h-2.072Zm.1,9.264h1.221c2.1,0,2.653-1.006,3.08-3.013l.256-1.238c.379-1.758.327-3.236-1.7-3.236h-1.273Z" transform="translate(-890.652 -3755.332)" fill="#987b3c"/>
      <path id="Tracé_19125" data-name="Tracé 19125" d="M1004.544,3822.7c-.188.927-.537,2.642-.614,3.167h-2.014c.046-.384.123-.913.213-1.36a2.806,2.806,0,0,1-2.726,1.6c-2.244,0-2.688-2.157-2.195-4.506.712-3.329,2.432-4.324,5.976-4.9.193-.03.39-.06.6-.09l.488-2.293c.324-1.464.016-2.265-1.131-2.265-1.183,0-1.459.929-1.813,2.344l-.087.346H999.2l.044-.2c.42-1.984,1-4.182,4.105-4.182,2.565,0,3.489,1.483,3,3.8Zm-1.093-4.387-.548.09c-2.058.4-3.138,1.022-3.626,3.165-.324,1.486-.153,2.691,1.093,2.691,1.358,0,2.1-1.349,2.672-4.067Z" transform="translate(-988.083 -3804.637)" fill="#987b3c"/>
      <path id="Tracé_19126" data-name="Tracé 19126" d="M1109.15,3771.279h1.718l.87-3.85h2.042l-.853,3.85h2.086l-.387,1.8h-2.086l-2.268,10.393c-.215,1.046-.074,1.557.859,1.557a5.829,5.829,0,0,0,1.077-.109l-.36,1.638a6.006,6.006,0,0,1-1.619.191c-1.535,0-2.6-.614-2.1-2.945l2.325-10.725h-1.69Z" transform="translate(-1089.729 -3765.311)" fill="#987b3c"/>
      <path id="Tracé_19127" data-name="Tracé 19127" d="M1167.188,3756.24c-.082.36-.444,2.1-.543,2.563-.371,1.75-.294,3.154,1.167,3.154,1.3,0,1.7-1.164,2-2.5l.09-.417h2.044l-.092.4c-.464,2.039-1.123,4.272-4.242,4.272-3.457,0-3.478-2.8-2.925-5.406l1.156-5.468c.493-2.38,1.3-4.858,4.394-4.858,3.418,0,3.549,2.658,3.048,5-.082.376-.6,2.837-.7,3.263Zm3.754-1.709c.065-.327.4-1.895.469-2.206.294-1.437.054-2.669-1.292-2.669-1.393,0-1.848,1.469-2.121,2.789l-.45,2.085Zm4.708-12.3-4.237,3.934h-1.957l3.5-3.934Z" transform="translate(-1141.403 -3742.233)" fill="#987b3c"/>
    </g>
    <g id="Groupe_992" data-name="Groupe 992" transform="translate(250 71.252)">
      <path id="Tracé_19153" data-name="Tracé 19153" d="M120.968,2969.233h1.125a4.494,4.494,0,0,0,2.5-1.04,4.644,4.644,0,0,0,1.828-2.277,11.3,11.3,0,0,0,.394-3.317,12.85,12.85,0,0,0-.394-3.458,4.44,4.44,0,0,0-1.828-2.39,4.815,4.815,0,0,0-2.755-1.012,7.316,7.316,0,0,0-3.57,1.462q.169,1.856.169,3.767v27.327h-7.76v-24.065a23.7,23.7,0,0,0-.647-6.663,15.523,15.523,0,0,0-2.727-4.526l6.747-4.779a8.408,8.408,0,0,1,2.587,3.317q4.61-3.317,6.579-3.317t5.454,3.148a24.591,24.591,0,0,1,4.723,5.286q.618.788.619,5.455t-.619,5.9a24.545,24.545,0,0,1-4.723,5.286q-3.487,3.149-5.454,3.148h-2.249Z" transform="translate(-107.305 -2946.124)" fill="#987b3c"/>
      <path id="Tracé_19154" data-name="Tracé 19154" d="M477.375,3084.84q-3.458,2.756-5.089,2.755t-5.089-2.755a19.471,19.471,0,0,1-4.245-4.1q-1.181-2.079-1.181-9t1.181-8.939a19.48,19.48,0,0,1,4.245-4.1q3.458-2.754,5.089-2.755t5.089,2.755a19.5,19.5,0,0,1,4.245,4.1q1.181,2.024,1.181,8.939t-1.181,9A19.493,19.493,0,0,1,477.375,3084.84Zm-6.466-4.554a1.547,1.547,0,0,0,2.755,0,7.491,7.491,0,0,0,1.265-1.518q.73-1.236.731-6.973t-.731-7.028a7.493,7.493,0,0,0-1.265-1.519,1.547,1.547,0,0,0-2.755,0,7.434,7.434,0,0,0-1.265,1.519q-.731,1.237-.731,6.972t.731,7.029A7.432,7.432,0,0,0,470.909,3080.285Z" transform="translate(-431.972 -3044.75)" fill="#987b3c"/>
      <path id="Tracé_19155" data-name="Tracé 19155" d="M755.373,2922.846H762.8v31.319a11.625,11.625,0,0,0,.675,4.442,7.133,7.133,0,0,0,2.137,2.755l-6.185,4.33q-4.048-3.206-4.049-9.109Z" transform="translate(-700.889 -2922.846)" fill="#987b3c"/>
      <path id="Tracé_19156" data-name="Tracé 19156" d="M908.371,3080.736q-1.181-1.856-1.181-8.94t1.181-9a20.315,20.315,0,0,1,4.161-4.133q3.317-2.727,5.145-2.728t4.948,2.165a15.32,15.32,0,0,1,4.695,4.92l-5.792,3.992a22.36,22.36,0,0,0-2-2.98q-1.265-1.63-1.884-1.631-1.125,0-2.586,2.362-.731,1.463-.731,7t.731,7a10.918,10.918,0,0,0,1.181,1.546,2.028,2.028,0,0,0,1.462.815q.73,0,1.912-1.292a9.782,9.782,0,0,0,1.912-3.318l5.792,4.048a14.047,14.047,0,0,1-4.639,4.92q-3.121,2.109-4.976,2.108t-5.173-2.727A20.29,20.29,0,0,1,908.371,3080.736Z" transform="translate(-839.943 -3044.75)" fill="#987b3c"/>
      <path id="Tracé_19157" data-name="Tracé 19157" d="M1195.4,3056.614v23.054a5.381,5.381,0,0,0,2.643,3.486l-5.061,4.33a9.932,9.932,0,0,1-1.8-1.8,16.386,16.386,0,0,1-1.8-2.643q-4.668,4.554-6.522,4.554-1.35,0-4.358-2.98a16.317,16.317,0,0,1-3.739-4.835q-.731-1.855-.731-8.012t.731-8.013a16.33,16.33,0,0,1,3.739-4.835q3.007-2.98,4.358-2.98,1.968,0,6.354,4.049l.675-3.374Zm-7.816,8.575a4.606,4.606,0,0,0-1.6-1.462,4.008,4.008,0,0,0-1.827-.759,1.945,1.945,0,0,0-1.321.731,4.04,4.04,0,0,0-.928,1.35q-.731,1.012-.731,6.719t.731,6.719a4.6,4.6,0,0,0,.928,1.322,1.921,1.921,0,0,0,1.321.759,4.011,4.011,0,0,0,1.827-.759,4.783,4.783,0,0,0,1.574-1.378q.365-.617.422-6.579Q1187.982,3065.892,1187.589,3065.189Z" transform="translate(-1084.357 -3044.75)" fill="#987b3c"/>
    </g>
    <g id="Groupe_995" data-name="Groupe 995" transform="translate(287 125.433)">
      <g id="Groupe_993" data-name="Groupe 993" transform="translate(0 0)">
        <path id="Tracé_19158" data-name="Tracé 19158" d="M1025.163,3573.794h-13.276l1.371-6.49h13.276Zm-12.838-.354h12.55l1.221-5.78h-12.55Z" transform="translate(-999.594 -3567.304)" fill="#fff"/>
        <path id="Tracé_19159" data-name="Tracé 19159" d="M1175.548,3573.794h-10.064l1.371-6.49h9.99a2.631,2.631,0,0,1,2.1.94,2.74,2.74,0,0,1,.495,2.341A4.181,4.181,0,0,1,1175.548,3573.794Zm-9.626-.354h9.626a3.812,3.812,0,0,0,3.542-2.927,2.4,2.4,0,0,0-.423-2.044,2.284,2.284,0,0,0-1.822-.809h-9.7Z" transform="translate(-1140.278 -3567.304)" fill="#fff"/>
        <path id="Tracé_19160" data-name="Tracé 19160" d="M878.327,3573.794h-9.99a2.63,2.63,0,0,1-2.1-.94,2.74,2.74,0,0,1-.5-2.341,4.182,4.182,0,0,1,3.889-3.208H879.7Zm-8.694-6.135a3.811,3.811,0,0,0-3.542,2.927,2.393,2.393,0,0,0,.423,2.044,2.283,2.283,0,0,0,1.822.81h9.7l1.221-5.78Z" transform="translate(-865.671 -3567.304)" fill="#fff"/>
      </g>
      <g id="Groupe_994" data-name="Groupe 994" transform="translate(0.178 0.178)">
        <path id="Tracé_19161" data-name="Tracé 19161" d="M1028.7,3569.417h-12.913l-1.3,6.135h12.913Z" transform="translate(-1002.159 -3569.417)" fill="#fd0"/>
        <path id="Tracé_19162" data-name="Tracé 19162" d="M1179.229,3569.417h-9.846l-1.3,6.135h9.845a3.992,3.992,0,0,0,3.716-3.068h0A2.411,2.411,0,0,0,1179.229,3569.417Z" transform="translate(-1142.842 -3569.417)" fill="#e30613"/>
        <path id="Tracé_19163" data-name="Tracé 19163" d="M881.421,3569.417h-9.845a3.992,3.992,0,0,0-3.715,3.067h0a2.411,2.411,0,0,0,2.419,3.068h9.845Z" transform="translate(-867.792 -3569.417)" fill="#1d1d1b"/>
      </g>
    </g>
  </g>
</svg>
